<svg width="25" height="25" viewBox="0 0 25 25" fill="none" xmlns="http://www.w3.org/2000/svg">
<mask id="mask0_19_20" style="mask-type:alpha" maskUnits="userSpaceOnUse" x="0" y="0" width="25" height="25">
<rect x="0.147888" y="0.147888" width="24" height="24" fill="#D9D9D9"/>
</mask>
<g mask="url(#mask0_19_20)">
<path d="M11.1479 13.1479H6.14789C5.86455 13.1479 5.62705 13.0521 5.43539 12.8604C5.24372 12.6687 5.14789 12.4312 5.14789 12.1479C5.14789 11.8646 5.24372 11.6271 5.43539 11.4354C5.62705 11.2437 5.86455 11.1479 6.14789 11.1479H11.1479V6.14789C11.1479 5.86455 11.2437 5.62705 11.4354 5.43539C11.6271 5.24372 11.8646 5.14789 12.1479 5.14789C12.4312 5.14789 12.6687 5.24372 12.8604 5.43539C13.0521 5.62705 13.1479 5.86455 13.1479 6.14789V11.1479H18.1479C18.4312 11.1479 18.6687 11.2437 18.8604 11.4354C19.0521 11.6271 19.1479 11.8646 19.1479 12.1479C19.1479 12.4312 19.0521 12.6687 18.8604 12.8604C18.6687 13.0521 18.4312 13.1479 18.1479 13.1479H13.1479V18.1479C13.1479 18.4312 13.0521 18.6687 12.8604 18.8604C12.6687 19.0521 12.4312 19.1479 12.1479 19.1479C11.8646 19.1479 11.6271 19.0521 11.4354 18.8604C11.2437 18.6687 11.1479 18.4312 11.1479 18.1479V13.1479Z" fill="#fff"/>
</g>
</svg>
