<svg width="25" height="25" viewBox="0 0 25 25" fill="none" xmlns="http://www.w3.org/2000/svg">
<mask id="mask0_18_8" style="mask-type:alpha" maskUnits="userSpaceOnUse" x="0" y="0" width="25" height="25">
<rect x="0.147888" y="0.0668945" width="24" height="24" fill="#D9D9D9"/>
</mask>
<g mask="url(#mask0_18_8)">
<path d="M9.6979 12.0669L17.0479 19.4169C17.2979 19.6669 17.4187 19.9586 17.4104 20.2919C17.4021 20.6252 17.2729 20.9169 17.0229 21.1669C16.7729 21.4169 16.4812 21.5419 16.1479 21.5419C15.8146 21.5419 15.5229 21.4169 15.2729 21.1669L7.5729 13.4919C7.3729 13.2919 7.2229 13.0669 7.1229 12.8169C7.0229 12.5669 6.9729 12.3169 6.9729 12.0669C6.9729 11.8169 7.0229 11.5669 7.1229 11.3169C7.2229 11.0669 7.3729 10.8419 7.5729 10.6419L15.2729 2.94188C15.5229 2.69188 15.8187 2.57105 16.1604 2.57938C16.5021 2.58772 16.7979 2.71688 17.0479 2.96688C17.2979 3.21688 17.4229 3.50855 17.4229 3.84188C17.4229 4.17522 17.2979 4.46688 17.0479 4.71688L9.6979 12.0669Z" fill="#1C1B1F"/>
</g>
</svg>
