<svg width="59" height="59" viewBox="0 0 59 59" fill="none" xmlns="http://www.w3.org/2000/svg">
<mask id="mask0_32_13" style="mask-type:alpha" maskUnits="userSpaceOnUse" x="0" y="0" width="59" height="59">
<rect width="59" height="59" fill="#D9D9D9"/>
</mask>
<g mask="url(#mask0_32_13)">
<path d="M24.5833 33.4333L39.0874 18.9292C39.5381 18.4785 40.1118 18.2531 40.8083 18.2531C41.5048 18.2531 42.0784 18.4785 42.5291 18.9292C42.9798 19.3798 43.2052 19.9535 43.2052 20.65C43.2052 21.3465 42.9798 21.9201 42.5291 22.3708L26.3041 38.5958C25.8124 39.0875 25.2388 39.3333 24.5833 39.3333C23.9277 39.3333 23.3541 39.0875 22.8624 38.5958L16.4708 32.2042C16.0201 31.7535 15.7947 31.1798 15.7947 30.4833C15.7947 29.7868 16.0201 29.2132 16.4708 28.7625C16.9215 28.3118 17.4951 28.0864 18.1916 28.0864C18.8881 28.0864 19.4618 28.3118 19.9124 28.7625L24.5833 33.4333Z" fill="#3482F6"/>
</g>
</svg>
