<svg width="25" height="25" viewBox="0 0 25 25" fill="none" xmlns="http://www.w3.org/2000/svg">
<mask id="mask0_35_7" style="mask-type:alpha" maskUnits="userSpaceOnUse" x="0" y="0" width="25" height="25">
<rect x="0.688721" y="0.766541" width="24" height="24" fill="#D9D9D9"/>
</mask>
<g mask="url(#mask0_35_7)">
<path d="M7.68872 21.7665C7.13872 21.7665 6.66789 21.5707 6.27622 21.179C5.88455 20.7874 5.68872 20.3165 5.68872 19.7665V6.76654C5.40539 6.76654 5.16789 6.67071 4.97622 6.47904C4.78455 6.28737 4.68872 6.04987 4.68872 5.76654C4.68872 5.48321 4.78455 5.24571 4.97622 5.05404C5.16789 4.86237 5.40539 4.76654 5.68872 4.76654H9.68872C9.68872 4.48321 9.78455 4.24571 9.97622 4.05404C10.1679 3.86237 10.4054 3.76654 10.6887 3.76654H14.6887C14.9721 3.76654 15.2096 3.86237 15.4012 4.05404C15.5929 4.24571 15.6887 4.48321 15.6887 4.76654H19.6887C19.9721 4.76654 20.2096 4.86237 20.4012 5.05404C20.5929 5.24571 20.6887 5.48321 20.6887 5.76654C20.6887 6.04987 20.5929 6.28737 20.4012 6.47904C20.2096 6.67071 19.9721 6.76654 19.6887 6.76654V19.7665C19.6887 20.3165 19.4929 20.7874 19.1012 21.179C18.7096 21.5707 18.2387 21.7665 17.6887 21.7665H7.68872ZM17.6887 6.76654H7.68872V19.7665H17.6887V6.76654ZM9.68872 17.7665H11.6887V8.76654H9.68872V17.7665ZM13.6887 17.7665H15.6887V8.76654H13.6887V17.7665Z" fill="#1C1B1F"/>
</g>
</svg>
