<svg width="19" height="19" viewBox="0 0 19 19" fill="none" xmlns="http://www.w3.org/2000/svg">
<mask id="mask0_1_316" style="mask-type:alpha" maskUnits="userSpaceOnUse" x="0" y="0" width="19" height="19">
<rect width="19" height="19" fill="#D9D9D9"/>
</mask>
<g mask="url(#mask0_1_316)">
<path d="M3.95833 15.0417H5.06667L11.8948 8.21358L10.7865 7.10525L3.95833 13.9334V15.0417ZM15.2792 7.06567L11.9146 3.74067L13.0229 2.63233C13.3264 2.32886 13.6991 2.17712 14.1411 2.17712C14.5832 2.17712 14.9559 2.32886 15.2594 2.63233L16.3677 3.74067C16.6712 4.04414 16.8295 4.41028 16.8427 4.8391C16.8559 5.26792 16.7108 5.63407 16.4073 5.93754L15.2792 7.06567ZM14.1313 8.23337L5.73958 16.625H2.375V13.2605L10.7667 4.86879L14.1313 8.23337Z" fill="#1C1B1F"/>
</g>
</svg>
