<svg width="24" height="24" viewBox="0 0 24 24" fill="none" xmlns="http://www.w3.org/2000/svg">
<mask id="mask0_1_178" style="mask-type:alpha" maskUnits="userSpaceOnUse" x="0" y="0" width="24" height="24">
<rect width="24" height="24" fill="#D9D9D9"/>
</mask>
<g mask="url(#mask0_1_178)">
<path d="M20.65 9.37501L19.25 7.97501L20 7.20001L16.8 4.00001L16.025 4.75001L14.6 3.32501L15.35 2.55001C15.7334 2.16668 16.2084 1.97918 16.775 1.98751C17.3417 1.99584 17.8167 2.19168 18.2 2.57501L21.425 5.80001C21.8084 6.18334 22 6.65418 22 7.21251C22 7.77084 21.8084 8.24168 21.425 8.62501L20.65 9.37501ZM8.65002 21.4C8.26669 21.7833 7.79586 21.975 7.23752 21.975C6.67919 21.975 6.20836 21.7833 5.82502 21.4L2.60002 18.175C2.21669 17.7917 2.02502 17.3208 2.02502 16.7625C2.02502 16.2042 2.21669 15.7333 2.60002 15.35L3.35002 14.6L4.77502 16.025L4.00002 16.775L7.22502 20L7.97502 19.225L9.40002 20.65L8.65002 21.4ZM18.575 13L20 11.575L12.425 4.00001L11 5.42501L18.575 13ZM11.575 20L13 18.55L5.45002 11L4.00002 12.425L11.575 20ZM11.425 14.15L14.175 11.425L12.575 9.82501L9.85002 12.575L11.425 14.15ZM13 21.4C12.6167 21.7833 12.1417 21.975 11.575 21.975C11.0084 21.975 10.5334 21.7833 10.15 21.4L2.60002 13.85C2.21669 13.4667 2.02502 12.9917 2.02502 12.425C2.02502 11.8583 2.21669 11.3833 2.60002 11L4.02502 9.57501C4.40836 9.19168 4.87919 9.00001 5.43752 9.00001C5.99586 9.00001 6.46669 9.19168 6.85002 9.57501L8.42502 11.15L11.175 8.40001L9.60002 6.85001C9.21669 6.46668 9.02502 5.99168 9.02502 5.42501C9.02502 4.85834 9.21669 4.38334 9.60002 4.00001L11.025 2.57501C11.4084 2.19168 11.8792 2.00001 12.4375 2.00001C12.9959 2.00001 13.4667 2.19168 13.85 2.57501L21.425 10.15C21.8084 10.5333 22 11.0042 22 11.5625C22 12.1208 21.8084 12.5917 21.425 12.975L20 14.4C19.6167 14.7833 19.1417 14.975 18.575 14.975C18.0084 14.975 17.5334 14.7833 17.15 14.4L15.6 12.825L12.85 15.575L14.425 17.15C14.8084 17.5333 15 18.0042 15 18.5625C15 19.1208 14.8084 19.5917 14.425 19.975L13 21.4Z" fill="#1C1B1F"/>
</g>
</svg>
